<svg fill="none" height="64" viewBox="0 0 64 64" width="64" xmlns="http://www.w3.org/2000/svg"><rect fill="#fff" height="64" rx="6" width="64"/><g fill="#ff0101"><path d="m32 22c2.2091 0 4-1.7909 4-4s-1.7909-4-4-4-4 1.7909-4 4 1.7909 4 4 4z"/><path d="m50 38v-4c-4.48 0-8.32-1.92-11.2-5.36l-2.68-3.2c-.76-.92-1.88-1.44-3.06-1.44h-2.1c-1.18 0-2.3.52-3.06 1.44l-2.68 3.2c-2.9 3.44-6.74 5.36-11.22 5.36v4c5.54 0 10.38-2.34 14-6.5v4.5l-7.76 3.1c-1.34.54-2.24 1.86-2.24 3.32 0 1.98 1.6 3.58 3.58 3.58h4.42v-1c0-2.76 2.24-5 5-5h6c.56 0 1 .44 1 1s-.44 1-1 1h-6c-1.66 0-3 1.34-3 3v1h14.42c1.98 0 3.58-1.6 3.58-3.58 0-1.46-.9-2.78-2.24-3.32l-7.76-3.1v-4.5c3.62 4.16 8.46 6.5 14 6.5z"/></g></svg>